<?xml version="1.0" standalone="no"?>
<!DOCTYPE svg PUBLIC "-//W3C//DTD SVG 1.1//EN" "http://www.w3.org/Graphics/SVG/1.1/DTD/svg11.dtd" >
<svg xmlns="http://www.w3.org/2000/svg">
<metadata>Generated by IcoMoon</metadata>
<defs>
<font id="icomoon" horiz-adv-x="1024">
<font-face units-per-em="1024" ascent="960" descent="-64" />
<missing-glyph horiz-adv-x="1024" />
<glyph unicode="&#x20;" horiz-adv-x="512" d="" />
<glyph unicode="&#xe600;" glyph-name="pwd" d="M923.424-64h-822.848c-37.792 0-68.576 29.888-68.576 66.528v473.248c0 36.736 30.784 66.528 68.576 66.528h822.848c37.856 0 68.576-29.792 68.576-66.528v-473.248c0-36.64-30.72-66.528-68.576-66.528v0 0zM100.576 497.952c-12.608 0-22.88-9.952-22.88-22.176v-473.248c0-12.192 10.272-22.176 22.88-22.176h822.848c12.576 0 22.848 9.984 22.848 22.176v473.248c0 12.224-10.272 22.176-22.848 22.176h-822.848zM805.28 508.864v0 0c12.704 0 22.88 9.952 22.88 22.176v122.080c0 169.216-141.792 306.88-316.16 306.88s-316.256-137.664-316.256-306.88v-122.080c0-12.224 10.272-22.176 22.848-22.176 12.704 0 22.88 9.952 22.88 22.176v122.080c0 144.768 121.408 262.528 270.528 262.528s270.432-117.76 270.432-262.528v-122.080c0-12.224 10.272-22.176 22.848-22.176zM580.48 91.264h-137.152v114.016c-30.784 21.408-49.44 55.808-49.44 92.8 0 63.232 53.024 114.624 118.112 114.624s118.016-51.392 118.016-114.624c0-36.928-18.656-71.392-49.536-92.8v-114.016zM489.056 135.616h45.696v94.88l11.808 6.336c23.296 12.448 37.76 35.936 37.76 61.248 0 38.72-32.416 70.24-72.32 70.24-39.936 0-72.416-31.52-72.416-70.24 0-25.312 14.464-48.8 37.664-61.184l11.808-6.304v-94.976z" />
<glyph unicode="&#xe601;" glyph-name="warn" d="M1016.438 5.176h-1008.906c-2.683 0-5.197 1.444-6.559 3.773-1.326 2.324-1.326 5.212 0 7.542l504.259 870.958c2.724 4.659 10.404 4.659 13.123 0l503.255-869.222c1.48-1.388 2.391-3.328 2.391-5.509 0-4.152-3.4-7.542-7.562-7.542zM511.79 868.593l-491.167-848.333h982.339l-491.172 848.333zM532.767 205.573h-38.646v37.453h38.646v-37.453zM527.191 323.103c-0.399-16.732-0.399-16.732-0.399-18.324 0-7.173 0.399-14.346 1.193-24.305h-29.481c0.799 12.349 0.799 14.74 0.799 28.288v14.341l-3.589 141.435c-0.399 16.732-0.794 28.687-2.391 43.827h39.444c-1.193-15.14-1.992-27.095-2.391-43.827l-3.185-141.435z" />
<glyph unicode="&#xe602;" glyph-name="uname" d="M705.504-64c-3.776 0-7.584 1.056-10.976 3.296-32.384 21.376-85.728 27.168-103.872 27.616h-23.648l-37.92-0.288h-476.992c-11.040 0-20 8.992-20 20.096v24.128c-0.352 6.752-0.96 43.648 22.464 84.192 14.688 25.344 35.776 47.136 62.72 64.736 32.608 21.312 73.952 36.416 122.816 44.96 0.256 0.064 0.512 0.096 0.768 0.128 0.352 0.032 37.984 5.216 76.192 15.328 66.208 17.536 72 33.056 72.064 33.216 0.384 1.536 0.928 3.008 1.664 4.384 0.544 2.912 1.888 13.824-0.672 43.104-6.528 74.304-45.088 118.208-76.032 153.504-9.792 11.136-19.008 21.632-26.112 31.936-30.624 44.48-33.472 95.040-33.6 97.184 0 0.32 0 0.672 0 0.992 0 20.192 10.016 29.472 18.848 37.664l0.448 0.448c0.32 0.256 0.48 0.448 0.608 0.576 0.096 1.472-0.608 5.12-1.088 7.584-0.192 0.928-0.384 1.888-0.544 2.816-7.68 41.92-8.192 106.624-1.248 148.16 2.56 54.624 49.44 96.448 51.456 98.208 0.096 0.064 0.16 0.128 0.224 0.192 6.752 5.76 13.568 12 17.92 18.944 0.512 0.864 0.896 1.504 1.12 1.984-0.32 0.864-0.8 1.952-1.152 2.816-2.624 6.048-6.56 15.168-4.32 26.88 1.376 7.104 6.496 19.744 25.824 24.928 7.744 2.080 16.064 2.496 22.144 2.816l1.184 0.064c23.968 1.248 49.504 2.336 75.36 0.352 186.976-14.4 251.36-84.576 254.016-87.552 0.16-0.192 0.288-0.352 0.448-0.512 14.944-18.016 26.048-40.48 32.928-66.72 2.176-8.192 3.552-15.072 4.352-21.568 6.528-38.112 5.44-77.28 4.064-103.488-0.8-14.688-2.432-30.112-5.152-48.544-0.736-5.024 0.064-5.984 0.384-6.368 0.8-0.96 1.792-2.016 2.848-3.136 4.128-4.416 9.792-10.432 12.8-20.128 1.504-4.832 2.208-10.048 2.208-16.416 0-0.32 0-0.672 0-0.992-0.128-2.144-2.976-52.704-33.6-97.184-7.104-10.304-16.32-20.8-26.080-31.936-30.976-35.296-69.536-79.2-76.064-153.536-2.56-29.248-1.216-40.16-0.672-43.072 0.736-1.376 1.28-2.848 1.696-4.384 0.032-0.16 5.856-15.712 72.384-33.28 38.176-10.112 75.488-15.232 75.84-15.264 0.352-0.064 0.672-0.096 0.992-0.16 49.312-9.184 90.912-24.704 123.584-46.144 27.040-17.696 48.064-39.456 62.592-64.608 23.008-39.904 22.048-76 21.6-83.232v-24.032c0-11.072-8.96-20.096-20-20.096h-189.28c-11.040 0-20 9.024-20 20.096 0 11.104 8.96 20.096 20 20.096h169.28v4.64c0 0.736 0 1.216 0.064 1.92 0.128 1.6 1.76 30.432-17.472 62.464-11.584 19.296-28.448 36.128-50.144 50.080-27.936 17.952-63.968 31.136-107.072 39.2-4.96 0.704-41.728 5.984-80.32 16.192-75.712 20.032-94.144 42.304-99.712 58.496-4.288 8.32-6.688 24.896-3.2 64.64 7.68 87.456 52.864 138.976 85.888 176.576 9.344 10.656 17.44 19.872 23.2 28.224 22.592 32.8 26.144 71.264 26.496 75.904-0.032 2.432-0.288 3.456-0.384 3.808-0.256 0.864-2.016 2.752-3.744 4.576-1.344 1.408-2.848 3.040-4.416 4.928-8.512 10.208-11.552 22.656-9.28 38.016 2.56 17.152 4.064 31.392 4.768 44.832 2.080 39.232 0.992 68.512-3.584 94.944-0.064 0.352-0.128 0.704-0.16 1.056-0.576 4.768-1.632 10.048-3.36 16.608-5.344 20.32-13.632 37.376-24.64 50.784-1.824 1.888-16.448 16.256-49.088 31.904-58.72 28.128-129.248 38.528-178.048 42.272-23.488 1.824-47.552 0.8-70.208-0.384l-1.28-0.064c-1.888-0.096-5.056-0.256-8.064-0.576 2.592-6.272 5.824-15.712 2.432-27.008-1.248-4.256-3.2-8.384-6.112-13.056-7.2-11.52-17.056-20.672-25.728-28.096-1.728-1.536-36.64-33.696-37.824-70.656-0.032-0.928-0.128-1.856-0.288-2.784-6.4-36.864-5.984-97.6 0.96-135.328 0.128-0.832 0.288-1.632 0.448-2.464 2.112-10.944 5.664-29.312-11.648-45.344l-0.448-0.448c-2.24-2.048-5.28-4.896-5.792-5.888v0c0 0-0.16-0.448-0.192-1.696 0.352-4.608 3.904-43.040 26.496-75.84 5.792-8.352 13.856-17.568 23.232-28.224 32.992-37.6 78.176-89.12 85.856-176.576 3.488-39.744 1.088-56.32-3.168-64.64-5.6-16.192-24-38.464-99.712-58.496-38.912-10.272-76-15.584-80.48-16.192-42.624-7.488-78.304-20.288-106.080-38.112-21.6-13.824-38.496-30.72-50.208-50.208-19.552-32.544-18.336-62.208-18.24-63.776 0.032-0.608 0.032-0.96 0.032-1.568v-4.608l518.816 0.288c0.16 0 0.288 0 0.448 0 3.104-0.064 76.448-2.112 125.12-34.208 9.248-6.080 11.84-18.528 5.76-27.808-3.84-5.888-10.24-9.088-16.736-9.088v0zM628.512 264.064c0.512-0.416 0.96-0.832 1.408-1.28-0.416 0.448-0.864 0.864-1.408 1.28v0zM395.904 264.064c-0.512-0.416-0.992-0.832-1.408-1.248 0.448 0.416 0.928 0.832 1.408 1.248v0z" />
<glyph unicode="&#xe603;" glyph-name="arrowleft" horiz-adv-x="1029" d="M795 871l-420-423 420-422q8-8 8-19.5t-9-20.5l-42-41q-9-8-21-8t-20 8l-477 480q-5 5-6.5 11t-0.5 12q-3 14 7 23l477 481q2 2 5 4t6 3 6 1 6-0.5 6-1.5 6-2.5 6-3.5l42-42q9-8 9-19.5t-8-19.5z" />
<glyph unicode="&#xe604;" glyph-name="china" d="M1021 730v1l-1 1-2 6q-1 3-1 4l1 5q3 7 0 15l1 2q7 16-4 23-3 2-7 2-8 0-14-7v-1q-2-2-5-2h-1l-2-1-1-1q-12-7-20-22-3-1-5-1-1 5-5 9-1 4-3 7.5t-6 5.5l-6 2-7-2q-1 0-2 1-9 6-22 6-4 0-8-1-3 4-6 7t-6 11v1l-1 1q-5 10-12 14l-2 3q-5 11-11 17-2 5-6 9-8 8-24 8h-7q-7 5-14 5-2 0-4-0.5t-4-1.5l-4-2q-2-1-5-3-3-1-8-2-12-2-18-6.5t-12-17.5v-1l-1-3v-6q0-3 2-6.5t5-5.5q-4-5-6-18-1-3-1-4v-1q-4-10-2-18-1-2-5-4v-1q-2 1-4 1t-3-1l-4 2q-2 1-4 1-4 0-7-2l-3-2-2-2q-7-10-13-38v-1q0-1-1-2-3-4-3-9v-3l1-3q6-15 16-17h4q3 0 5.5 1t4.5 3l1 1q1 0 2 1 3-2 6-2.5t5 0.5q-3-1-6-4l-2-1-1-2q-2-1-4.5-1.5t-4.5-2.5q-5-4-8-15v-2l-3-3h-1q-1 0-2-1-16 0-21-13-1-2-1-4h-1q-5 1-8 2-1 0-2 0.5t-2 1.5q-7 3-12 3-6 0-11-4.5t-9-12.5v-1q-4-13 0-24-7-4-12-16l-1-1q-4 0-7-1.5t-6-3.5h-14q-12 0-19-1.5t-13-4-18-10.5l-1-1h-1l-2 9-14-6q-5-2-7-2-1 0-4 2-7 6-15 7-9 12-34 13h-6q-4 0-12-1h-9q-11 0-19 4l-1 1h-1q-4 2-9 2h-4q-2 5-5 9-3 7-5 11 1 6-2 11-4 7-14 7-2 2-6 5-4 5-7 7-6 6-12.5 8.5t-15.5 2.5h-9q-1 0-3 1 11 17 6 33-1 4-1 7v1l-1 2v1q-1 2-1 5-1 15-14 19-4 5-13 6l-1 3-3 3v3l-1 2v1q-1 16-17 17-4 2-7 2l-2 1-1-1q-9 0-14-7-3-3-4-7-10 0-17-7-4-4-6-9.5t-2-12.5q-1 0-2.5 1t-4.5 2l-2 2h-1q-1 1-4 2-6 4-11 4t-9-3-9-8v-1l-2-2q-5-13-9-19-2-3-3-4-5 1-10.5 0.5t-9.5-1.5l-1-1h-8q-2 0-4.5-1t-4.5-2.5-4-3.5l-1-1-1-3v-1q-2-8 3-15 0-1-1-3-1-6-1-9t1-8v-1l-5-5-2-1-1-1q-5-5-7-15-1-1-3-1-10 0-15.5-0.5t-12-2-11.5-4.5q-3 1-5 1-3 0-6-1-6-2-9-6-3 2-6 3l-4 1-2-1q-5 3-11 2-5-1-9-5h-4q-13-2-18-11-1-1-1.5-2t-0.5-3q-5-4-7-9-1-2 0-5-2-3-2-5-3-11 6-20 1-1 2-2.5t3-2 3-1.5v-8q-9-5-10-14 0-6 3.5-11t9.5-7l1-1q0-1 1-2l2-1 1-2v-1q-1-2-1.5-4.5t0-6 2.5-6.5q2-5 6-7.5t9-4.5v0q5-8 13-11-1-7 0.5-11.5t4.5-8.5q0-1-0.5-2.5t-1.5-2.5q-1-4 1-13 1-4 1-6l-7-4q-6-5-7-13 0-3 2-9v-1q0-3-1-9v-2q-3-17 16-30l2-1q9-5 17-20l1-1q2-3 5-5t5-2.5 5-1.5q5 0 9 3 3-4 8-8l2-1q5-4 6-6 1-7 4.5-11t9.5-5q2-7 7-11 4-4 10-7l2-3q2-3 4.5-5t6.5-3q2-5 5-8t8-4h3l6-1q3 0 6 1 6-5 20-5 3 0 8 1l4-10q1-2 3-3t5.5-2 7.5-1q14 2 16 16v1q1 0 3 1 2-3 5-4.5t6.5-2.5 6.5-2q1-3 2.5-5.5t4.5-4.5v-3q0-5 1.5-8t3.5-5q5-6 16-6h8q8 1 12.5 1.5t10.5 3 10 7.5v1l2 1v1h2q11 2 17 10l1 1h4l1 1h1l1-1 4-2q3-1 7-4l1-1q5-3 12-3l6 1q1 0 2.5 1t2.5 2q3-5 7-7 1-5 1-8.5t-1-6.5q0-2-1-3.5t-1-2.5-1-3q-6-3-10-10-8-4-9-12-6-5-5-14l2-5q-6-10 1-18 3-3 6-4t6-1q6 0 11 3 2-7 4-11 2-6 7-9-5-9-1-17 4-9 16-10 6-13 19-13h6q1-1 1.5-2.5t2.5-2.5q4-3 9-4 5-2 9-2t8 2q9 5 7 17-1 1-1 2l1 3v5q0 1-1 3 5 1 10 3l7-1h1q4-3 9-2 4-1 7-1h3q2 0 3.5 0.5t2.5 1.5l3 3h1l7-1 3 5 12-2-1 6q2-1 4-1.5t4-1.5q1-8 6-15 4-5 10.5-8.5t15.5-5.5q3-1 6.5-2t6.5-1q5 0 9 2 2 0 3 1l8-9 3 3 2-6q-1-5 2-10 4-9 15-9l5 1q10 2 14.5 8.5t4.5 13.5q0 3-1 6 2 0 4.5 0.5t4.5 1.5h2q7 0 15 5 3 1 6.5 2t5.5 3q3 0 5.5 1t4.5 2q2 2 3.5 4t2.5 5l1 1h7l4 1q2 0 4 1 3 0 5 0.5t4 1.5 4 2.5 4 2.5h6q2 0 4 2l3 2q8 0 14.5 4.5t11.5 11.5l3 4 1 2h1q5 2 8 4t5 5 4 9l1 1v2h1l1 1v1l3 3q5 3 8 9 4 3 6 8l3 2q5 2 7 6 4 6 2 13 1 5 0 11 2 2 2 5 3 4 4 9 7 5 9 12 1 5-1 11l2 2q10 3 14 16l1 3-1 3v2q3 4 2 10 6 9 1 19 1 5-1 9-2 6-8 9 1 1 2 2.5t2 2.5q1 3 1 5t-0.5 4-1.5 4l3 11-5 1q0 2-1 4l-2 4-1 3q-1 1-3 2v1l-3 2-1 1q-1 1-3 2-2 4-8 6-1 4-3 7t-5 6v2h-1q-5 16-10 22-5 4-15 8 2 2 4 5h1l4 6q3 1 5 3.5t4 5.5l2 4q1 2 1 5h1q3 1 5 2.5t3 2.5h9l4 4q2 1 3 3t2 3v4q1 1 1 3 4 9-1 16-4 8-15 8h-7l-5-1q-2 0-6 2v0l1 1h1l1 1q9 6 13 15l5 5q2 2 4.5 3.5t4 2.5 3.5 2q5 1 9 4l3-2 5 11 6 10v1l4 4v1l2 1v1q1 0 1 1 10 7 14 18 4-1 8-1 11 0 18 6.5t6 15.5q5 3 7 9h1q0 1 1 1l1 1h1q2 2 4 5h3q5 0 8 2 5 4 6 10 2 3 3 5 8 18-6 49l1 1h2q11 0 16 4.5t7 13.5q1 2 1 3v4q3 24 1 33zM994 700v0h-12l-3-2q-5-3-7-9-7-5-8-12-1-4 0-8t4-8q3-6 4-12l3-10h-3q-6 0-13-7-5-5-4-13-3-2-4.5-4t-2.5-4q-11-3-14-10-3 1-6 1h-1q-3 0-6-1.5t-7-6.5-6-13q-3-7-6-10l-6-5q-9-8-14-21h-1l-1-1q-7-2-13-7v10l-2 3q-10 13-17 14-5 1-8-1-6 0-11-3t-9-11q-4-9-6-12-7-3-12-11l-1-1-1-2v-1q-2-3-2-5-2-1-5-2h-2q-1 1-3 1-8 0-14-7-4-5-5.5-13t0.5-13v-2q1-1 1-2 2-3 3.5-5.5t4.5-5.5 7-5q5-1 11 0 0-5 2-8.5t6-6.5q5-4 14-4h6q-1-2-1.5-4t-0.5-5v-2l-4-6q-2-3-4-7v-2q-1-1-1-4-2-5-2-7.5t1-7.5q2-5 5-7t8-4l10-4q1-1 4-11l1-3 2-3v-1q2-1 4-4l2-2q-1-9 2-13-3-7-1-13 3-8 13-11h1l-2-3h-1q-11-1-16-10-1-3-1.5-5t-0.5-4.5 1-4.5l2-4q4-6 11-6 2 0 3 1h7l2-1h1q0-2 1-4-1-1-0.5-4.5t2.5-6.5q-4-3-6-8-2-3-3-8v-1l-4-2-1-5q-1-5 0-11-2-1-3-3h-5q-1-1-2-1.5t-2.5-1.5-2.5-2-2-3.5-2-4.5v-1q0-8 4-13-1-3 0-7 0-1-0.5-3t-1.5-4l-6-1v-5h-2l-1-2h-3v-4q-3 0-6-1.5t-5-3.5q-8-8-3-17-1-2-1-4v-1h-2l-3-1-3-2q-7 0-12-4-5-6-4-14h-2l-4 1h-2v-1h-1l-4-2h-6q-8-2-13-9v0h-1l-1-1q-4 7-8 9t-8 2l-5-1q-10-4-9-15v-3q0-1-1-2-2-2-3-4-1 0-3-0.5t-3-1.5-2-3h-2q-5 0-10-4h-1l-6 1-5-3-1-1-1 1h-2l-2-1q-3-1-5-2-2 1-4 1-1 0-2-0.5t-2-0.5q-4 3-12 3h-6l-3 3-2-2h-2l-1 1-6 7-18-6v-2q-5 1-8 1.5t-4 1.5q2 6 2 10t-3 10q-5 7-15 7-2 0-5-1-2 0-2 1l-2 1q-8 8-17 8-4 0-8-1-7-3-11-11h-3l-6-1q-1-1-3-2-1 2-4 2-1 1-2 1h-2q-5 0-9-3l-4 1q-3 0-5.5-1t-4-2-3.5-2h-5q-11 0-17-7-3-5-4-11-2 0-4-0.5t-5-1.5q-1 5-4 7-2 1-3 2t-2 1q1 4 1 8.5t-3 8.5q-3 6-9 8 3 4 4 8 2 10-5 16-5 3-11 3l-6-1q-1 1-2.5 1t-4.5-1l7 7q6 2 10 9v1l6 5-1 6 1 1 1 4q1 11 0 31-1 10-10 14v1q-4 20-22 21-11 0-17-10-5 4-10.5 5.5t-10.5 1.5q-6 0-10-1-7-1-11.5-4t-7.5-7q-12-1-20-12-1-1-3.5-1.5t-4.5-0.5h-5q-1 8-9 14-2 16-21 17h-1q-3 0-4 2-7 10-21 7-8-1-14-5-2 2-5 3t-7 1-9-1h-13q-5 4-13 6h-5q-1 1-2 1.5t-2 0.5v1l-8 6q-1 2-2 3.5t-2.5 3.5-4 3-6.5 1h-2l-1 1v2q0 2-0.5 4t-2 4.5-4.5 4.5q-4 3-9 3 0 2-1.5 4t-2.5 3.5-2.5 2.5-3.5 3l-2 2q-1 1-3 2v1h-1v1l-2 3q-1 4-6 7.5t-10 4.5q-7 1-12-1-5 7-11 12.5t-12 8.5v1h-1l-3 3v2q1 4 1 7 10 3 14 13l2 4-2 5v5q0 2-0.5 3t-1 3.5-1.5 4.5v4l3 2 2 4q2 3 2 7.5t-2 8.5v1l-1 1q-2 3-4 5l-4 4v9q0 2-0.5 4.5t-1.5 4.5q-4 9-15 10-4 6-12 10v1q3 18-7 25l-2 2q1 2 1.5 4t0.5 5v3q-1 4-1 8t1 8v3q0 12-8 17 0 1-0.5 1t-1.5 1v1l5 2-1 4q6 1 11 3v-1h1q1-1 3-2l1-1h1l1-1q6-2 12-1.5t11 2.5l8 3v3q3 0 6.5 1t6.5 3q5 3 28 4v0h7q19 3 20 19 0 2 1 4 1 0 2 1t1 2q11 4 12 19v9q-1 6 0 7v1q1 6 1 10 1 0 2 0.5t3 0.5h3q4-3 7.5-4.5t6.5-1.5l7 2q9 4 9 19l3 3 1 2t1.5 3.5 2 4 3.5 6.5q0-1 1-1l2-1q2-1 3.5-2t4-2 4.5-1.5 5.5-1 6.5-0.5h5l2 1q10 2 14 9 3 6 1 14v5h1q4 0 7.5 1t6.5 2q1 1 2 1.5t2 1.5q0-2 1-3t2-2.5 3-2.5l2-4 2-2q1-2 2-3l4-2q1-1 3-2l3-1h3l4-3q1-4 2-9 0-3 1-5t2-5v-3l-4-8q-10-12-5-24 2-6 8.5-10.5t10.5-5.5 10-2l1-1h2l8 1q6 0 10-4v-1h1l5-5q7-8 14-11 1-4 4-8l1-1q0-1 1-2.5t1-4.5l1-1 2-3 2-2q-1-8 4-13 3-4 7.5-5t8.5-1h9q13-6 30-6h26q11 0 13-2l2-3 3-3q5-4 12-4 2 0 4-2l1-1h1q3-2 4.5-2.5t4-2 5.5-1.5h6l2-11 12 7 4-4 8 5q5 3 11 7 14 8 18.5 9.5t17.5 1.5h25l6 6h5l2 1q3 1 5 2t3 2.5 2.5 3.5 2 3.5 1.5 3.5l2 5h2q15 4 17 15 3 11-7 20l4-2 8-1q7-2 11-2 12 0 20 17v0l1 1h4q8 2 13 6t10 13l1 2q0 1 1 3v2h4q5 1 8 5h3l5 5q1 2 2 3h1q0-1 1-1t2.5-0.5 3.5-0.5h5q10 0 16 6 6 8 2 20v1q-2 4-5 7.5t-5 5-5 4.5h-1q-3 2-4 4-4 4-9 6.5t-11 2.5q-8 0-15-4l-4-2h-8q2 9 4 15h2q1-1 3-1.5t3.5-0.5 3.5 0.5 3.5 1.5 3.5 2h1l1 1 5 4q19 14 17 26v1l-1 2-1 1q0 1-0.5 1.5t-0.5 1.5l1 2q1 2 1.5 4t1 5.5 0.5 4.5q5 4 7 9.5t1 10.5-2 8.5-3 8.5h4q2 1 3.5 1t4.5 0.5 5 1.5h2l2 2h2q1 2 2 2 6-3 12-4h5l4 1h2l-1-3 8-6q5-3 8-10l7-12 1-1 4-2q1 0 1-1 1 0 1-1 2-4 3-7t2.5-5.5 3.5-4.5l5-5q0-1 1-2 6-11 14-12h4q8 1 12 1l8-2q2-1 3.5-1.5t4-1.5 5.5-1l3-3q0-14 14-18l1-1q5-1 10-1 9 0 17.5 4t12.5 11q1 2 2 3-1-6 3-17 1-3 1.5-4t0.5-6.5-0.5-8.5-0.5-8zM831 493l3-3v-1q-7-4-11-10-1 4-4 7-4 4-10 5 3 1 5.5 3t4.5 5 3 5l3 8q5 2 8 6 0-1 0.5-3t0.5-4q-3-3-4-7.5t-0.5-6.5 1.5-4zM762 691l1 1 1-1h-2zM753 685q1 0 2 1l-1-1h-1zM689 378q-19 0-33-14t-14-34 14-34 33-14q8 0 15 2.5t13 7 10 10.5 6.5 13 2.5 15q0 20-13.5 34t-33.5 14zM768 364q-3 8-8 15t-10 13q-12 12-28 18-15 7-33 7-8 0-16.5-1.5t-16.5-5.5q-5-2-10-5l-8-6q-5-3-9-7-12-12-18-28-3-5-4.5-10.5t-2-11.5-0.5-12q0-17 7-34 3-7 7.5-14t10.5-13q12-12 27-19 5-2 10.5-3.5t11.5-2.5 11-1q3 0 5.5 0.5t4.5 0.5h5l4 2q3 0 5.5 1t4.5 1.5 4 1.5q16 7 27.5 19t18.5 27q2 6 3.5 11.5t2.5 11 1 11.5q0 18-7 34zM761 330q0-8-2-16.5t-5.5-15.5-8.5-13.5-11-11.5-13-8.5-15-5.5-17-2q-29 0-50 21.5t-21 51.5q0 9 2 17t5.5 15 8 13.5 11 11.5 13.5 8.5 15 5.5 16 2q30 0 51-21.5t21-51.5z" />
<glyph unicode="&#xe605;" glyph-name="chinaactive" d="M1019 764l-1-2q3-8 0-15-1-3-1-4v-1q0-1 1-4l2-6 1-1v-1q2-9-1-33v-4q0-1-1-3-1-6-3.5-9.5t-7-6-12.5-2.5h-2l-1-1q14-31 6-49-1-2-3-5-1-6-6-10-3-2-8-2h-3q-1-1-2-2.5t-2-2.5h-1l-1-1q-1 0-1-1h-1q-1-3-2.5-5t-4.5-4q1-9-6-15-4-4-8.5-5.5t-9.5-1.5q-4 0-8 1-3-7-6-11t-8-7q0-1-1-1v-1l-6-6v-1l-6-10-5-11-3 2q-2-2-4.5-2.5t-4.5-1.5q-4-1-7.5-4.5t-9.5-8.5q0-1-1-2.5t-2.5-3.5-4-4.5-5.5-4.5l-1-1h-1l-1-1q3-1 4-1.5t2-0.5q2 0 5 1h7q6 0 10-2.5t5-5.5q5-7 1-16 0-2-0.5-4t-2-4.5-3.5-4.5l-4-4h-9q-3-3-8-5h-1q0-2-0.5-3t-1-2.5-1.5-3.5q-3-7-9-9l-4-6h-1q-2-3-4-5 10-4 15-8 5-6 10-22h1v-2l4-4q1-1 2.5-3.5t1.5-5.5q6-2 8-6l3-2 1-1 3-2v-1q2-1 3-2l1-3 2-4q1-2 1-4l5-1-3-11q3-6 1-13-1-3-4-5 4-2 5.5-4.5t2.5-4.5 1-5v-4q4-10-1-19 1-6-2-10v-2l1-3-1-3q-4-13-14-16l-2-2q2-6 1-11-1-3-3-6t-6-6q-1-5-4-9 0-3-2-5 1-6 0-11 1-3 0.5-6.5t-2.5-6.5q-1-2-3-3.5t-4-2.5l-3-2q-2-5-6-8-3-6-8-9-1-2-3-3v-1l-1-1h-1v-2l-1-1q-3-8-6.5-11.5t-10.5-6.5h-1q0-1-1-2l-3-4q-10-15-26-16-1-1-3-2-5-3-10-2-3-3-7.5-5t-9.5-2l-4-1q-3-1-4-1h-7l-1-1v-1l-6-8q-4-3-10-3-2-2-4-3t-4-1.5-4-0.5q-8-5-15-5h-2q-4-2-9-2 0-2 0.5-3.5t0.5-2.5q0-7-4.5-13.5t-14.5-8.5q-2 0-3-0.5t-2-0.5q-11 0-15 9-1 2-1.5 3.5t-0.5 3.5v3l-2 6-3-3-8 9q-1-1-3-1-4-2-9-2l-13 3q-9 2-15.5 5.5t-10.5 8.5q-5 7-6 15-4 1-8 3l1-6-12 2-3-5-7 1h-1l-3-3q-2-1-4-1.5t-5-0.5l-7 1h-3q-2 0-3.5 0.5t-2.5 1.5h-1l-7 1q-3-1-5-2t-5-1q1-3 1-6v-2l-1-3q0-1 1-2 0-4-0.5-7t-2-6-4.5-4q-4-2-8-2l-9 2q-5 1-9 4l-4 5h-6q-13 0-19 13-7 0-10.5 3t-5.5 7q-4 8 1 17-5 3-7 9-1 2-2 4.5t-2 6.5q-1-1-3-2h-4q-2-1-4-1-7 1-12 5-7 8-1 18-1 3-1.5 5.5t-0.5 5 1.5 5 3.5 3.5q1 8 9 12 4 8 10 10 1 5 3 9 1 6 0 15-2 1-4 3t-3 4q-2-2-5-3t-6-1-6 1l-6 2-1 1q-4 3-7 4l-4 2-1 1h-1l-1-1h-4l-1-1q-6-8-17-10h-2q-1-1-1-2h-1v-1q-4-5-10-7.5t-10.5-3-12.5-1.5h-8q-11 0-16 6-5 5-5 13v3q-5 4-7 10-11 1-18 9l-3-1v-1q-2-14-16-16-6 0-10 1.5t-6 4.5q-4 4-4 10-5-1-8-1-14 0-20 5-3-1-6-1t-6 1h-3q-9 2-13 12-2 1-4 1.5t-4 2.5-3 4-2 3q-6 3-10 7-5 4-7 11-11 2-14 16-1 2-6 6l-2 1q-5 4-8 8-4-3-9-3-4 1-8 2.5t-7 6.5l-1 1q-8 15-17 19v1l-2 1q-3 2-4.5 3.5t-5 4.5-4.5 5.5-2.5 7.5 0.5 9v2q1 2 1 3v7q-2 6-2 9 0 4 1.5 7t5.5 6q3 3 7 4 0 2-0.5 3t-0.5 3q-2 9-1 13 1 3 2 5-6 8-5 20-8 3-13 11v0q-5 2-9 4.5t-6 7.5q-2 6-2 9.5t1 7.5v1q-2 1-3 3-1 1-1 2l-1 1q-14 4-13 18 1 10 10 14v8q-5 2-8 6-9 9-6 20 0 2 2 5 0 3 0.5 5.5t2 5 4.5 3.5q0 2 0.5 3t1.5 2q5 9 18 11h4q4 4 9 5h4q2 0 4-0.5t3-1.5l2 1 4-1q1-1 2.5-1.5t3.5-1.5q3 4 9 6l6 1q2 0 5-1 10 6 39 7h2l1 1q1 5 3 8.5t4 6.5l1 1 2 1q2 3 5 5v1q-1 11 0 17l1 1v2q-5 7-3 15v1l1 3 1 1q6 6 13 7h8l1 1q10 3 20 1 1 2 3 4 4 6 9 19l2 2v1q2 3 3.5 4t4 3 5 3 5.5 1h4q2 0 3.5-1t2-1.5 2.5-1.5l3-2h1l2-2q5-2 7-3 0 14 8 22 3 3 7 5t10 2q1 1 1.5 2.5t1 2.5 1.5 2q5 7 14 7l1 1 2-1q3 0 7-2 16-1 17-17v-1l1-2v-3l3-3 1-3q9-1 13-6 13-4 14-19 0-3 1-5v-1l1-2v-1l1-7q2-5 2.5-9t-1.5-10.5-7-13.5q2-1 3-1h9q16 0 28-11 3-2 7-7 4-4 6-5 2 0 4-0.5t5-2 5-4.5q3-5 2-11 2-4 5-11l5-9h4q5 0 9-2h1l1-1q9-4 19-4h9q3 1 4 1h14q7-1 11.5-1.5t11.5-3.5 11-8q3-1 7-2t8-5q3-2 4-2l7 2 14 6 2-9 1 1h1q12 8 18 10.5t13 4 19 1.5h14q2 1 4 2.5t4.5 2 4.5 0.5l1 1q5 12 12 16-4 11 0 24v1l2 4q1 2 2.5 4t2.5 3l4 2 2 2q2 1 3.5 1.5t3.5 0.5l12-3 4-2q3-1 8-2v0h1q0 2 1 4 5 13 21 13 1 0 3 1 1 0 3 3v2q1 4 2 6t2.5 4.5 3.5 4.5q4 3 9 4 1 2 3 3 3 3 6 4-5-1-11 2-1-1-2-1l-1-1q-5-4-10-4h-4q-3 1-6 3t-5.5 5.5-4.5 8.5l-1 3v3q0 5 3 9 1 1 1 2v1q6 28 13 38l2 2 3 2q2 1 3.5 1.5t3.5 0.5q4 0 8-3 1 1 3 1t4-1v1h1q3 2 4 4-2 8 2 18v1q0 1 1 4 0 4 0.5 6.5t2 5.5 3.5 6q-3 1-4.5 3.5t-2 5-0.5 4.5v5l1 3v1q6 13 12 17.5t18 6.5q6 1 8 2 10 7 17 7 3 0 6-1t4.5-2 3.5-2h10q2 0 4.5-0.5t4.5-0.5l4-2q2 0 4-1.5t4-3.5q4-4 6-9 6-6 11-17 1-1 1-2t1-1q3-2 5-4t4-4.5 3-5.5l1-1v-1q3-8 6-11t6-7q4 1 8 1 13 0 22-6 1 0 2-1l7 2q3 0 6-2 7-4 9-13 4-4 5-9l5 1q4 7 9 13t11 9l1 1 2 1h1q3 0 5 2v1l2 2q2 2 5 3.5t7 1.5q1 0 3-0.5t4-1.5q11-7 4-23zM753 685h1l1 1q-1-1-2-1zM763 692l-1-1h2zM768 364l-4 8-4 6q-2 4-5 7.5t-5 6.5q-6 6-13 10.5t-15 7.5q-15 7-33 7-8 0-16.5-1.5t-16.5-5.5q-15-6-27-18t-18-28q-4-8-5.5-16.5t-1.5-17.5q0-17 7-34 6-15 18-27t27-19q8-3 16.5-5t16.5-2q18 0 33 7 16 7 28 19 5 6 10 13t8 14q3 8 5 16.5t2 17.5q0 18-7 34zM689 257q-11 0-22 4t-20 10.5-15.5 15.5-10 20-3.5 23 3.5 23 10 20 15.5 16 20 10.5 22 3.5q30 0 51-21.5t21-51.5-21-51.5-51-21.5zM689 378q-19 0-33-14t-14-34q0-13 6.5-24t17-17.5 23.5-6.5q8 0 15 2.5t13 7 10 10.5 6.5 13 2.5 15q0 13-6 24t-17 17.5-24 6.5z" />
<glyph unicode="&#xe606;" glyph-name="calendar" d="M283 768q13 0 24 6.5t17.5 17.5 6.5 24v96q0 13-6.5 24t-17.5 17.5-24 6.5q-20 0-34-14t-14-34v-96q0-20 14-34t34-14zM741 768q13 0 24 6.5t17.5 17.5 6.5 24v96q0 20-14 34t-34 14-34-14-14-34v-96q0-20 14-34t34-14zM976 816v-832h-928v832h107v-16q0-30 15-56t41-41 56-15h32q47 0 79.5 33t32.5 79v16h202v-16q0-13 3-25.5t8.5-23.5 13-21 17-17.5 20.5-13 24-8.5 26-3h32q46 0 79 33t33 79v16h107zM992 864h-171v-64q0-27-19-45.5t-45-18.5h-32q-18 0-32.5 8.5t-23 23.5-8.5 32v64h-298v-64q0-17-8.5-32t-23-23.5-32.5-8.5h-32q-26 0-45 19t-19 45v64h-171q-13 0-22.5-9.5t-9.5-22.5v-864q0-13 9.5-22.5t22.5-9.5h960q13 0 22.5 9.5t9.5 22.5v864q0 7-2.5 12.5t-7 10-10.5 7-12 2.5v0zM304 103q0-13-9.5-22.5t-22.5-9.5h-128q-13 0-22.5 9.5t-9.5 22.5v32q0 9 4.5 16.5t11.5 11.5 16 4h128q13 0 22.5-9t9.5-23v-32zM304 296q0-9-4.5-16t-11.5-11.5-16-4.5h-128q-9 0-16 4.5t-11.5 11.5-4.5 16v32q0 9 4.5 16t11.5 11.5 16 4.5h128q4 0 8.5-1t8-3 6.5-5 5-6.5 3-8 1-8.5v-32zM304 489q0-9-4.5-16.5t-11.5-11.5-16-4h-128q-13 0-22.5 9t-9.5 23v32q0 13 9.5 22.5t22.5 9.5h128q9 0 16-4.5t11.5-12 4.5-15.5v-32zM608 103q0-8-4.5-15.5t-11.5-12-16-4.5h-128q-7 0-12.5 2.5t-10 7-7 10.5-2.5 12v32q0 7 2.5 13t7 10 10 6.5 12.5 2.5h128q13 0 22.5-9t9.5-23v-32zM608 296q0-13-9.5-22.5t-22.5-9.5h-128q-13 0-22.5 9.5t-9.5 22.5v32q0 7 2.5 12.5t7 10 10 7 12.5 2.5h128q13 0 22.5-9.5t9.5-22.5v-32zM608 489q0-7-2.5-13t-7-10-10-6.5-12.5-2.5h-128q-13 0-22.5 9t-9.5 23v32q0 13 9.5 22.5t22.5 9.5h128q9 0 16-4.5t11.5-12 4.5-15.5v-32zM912 103q0-13-9.5-22.5t-22.5-9.5h-128q-9 0-16 4.5t-11.5 12-4.5 15.5v32q0 24 22 31 6 1 10 1h128q9 0 16-4t11.5-11.5 4.5-16.5v-32zM912 296q0-9-4.5-16t-11.5-11.5-16-4.5h-128q-9 0-16 4.5t-11.5 11.5-4.5 16v32q0 9 4.5 16t11.5 11.5 16 4.5h128q5 0 10-1.5t9-4.5 7-7 4.5-9 1.5-10v-32zM912 489q0-14-9.5-23t-22.5-9h-128q-9 0-16 4t-11.5 11.5-4.5 16.5v32q0 8 4.5 15.5t11.5 12 16 4.5h128q13 0 22.5-9.5t9.5-22.5v-32z" />
<glyph unicode="&#xe607;" glyph-name="filter" d="M0 619h1024v-34h-1024v34zM0 960h1024v-34h-1024v34zM410 243h-410v34h410v-34zM546-64h-546v34h546v-34zM737 479q99 0 168.5-70t69.5-170q0-89-58-156l107-108-25-25-107 107q-32-27-71.5-42.5t-83.5-15.5q-98 0-168 70.5t-70 169.5q0 65 32 120.5t86.5 87.5 119.5 32zM737 35q26 0 50.5 6t46.5 18.5 41 29.5l11 11q54 59 54 139 0 85-59.5 145t-143.5 60q-41 0-78.5-16.5t-64.5-44-43.5-65-16.5-79.5q0-85 59.5-144.5t143.5-59.5z" />
<glyph unicode="&#xe608;" glyph-name="refresh" horiz-adv-x="1028" d="M957 527l-74-1q-1 59-20 114.5t-54 100.5-81 78-102.5 51-116.5 17q-75-1-143-31t-117-79.5-77.5-117.5-27.5-143q1-99 51.5-182.5t136.5-131.5 186-47l1-73q-120-1-223 56.5t-163.5 157.5-62.5 220q-1 89 33 170.5t92.5 141 140.5 95.5 172 37q120 1 223-56t163.5-157.5 62.5-219.5v0zM957 527q0-15-10.5-26t-26.5-11q-6 0-11.5 1.5t-10 5-8 8-5.5 10-2 11.5q0 15 10.5 26t26 11 26.5-10.5 11-25.5v0zM740 122l-219-186-5 366z" />
<glyph unicode="&#xe609;" glyph-name="search" d="M952 66l-58-59-271 272q-44-35-98-54t-112-19q-93 0-171.5 46t-124 124.5-45.5 171 45.5 171.5 124 124.5 171.5 45.5q46 0 90.5-12.5t82-34.5 69-53.5 53.5-68.5 34-81.5 12-90.5q0-118-72-210zM413 821q-74 0-137-36.5t-99.5-99.5-36.5-137.5 36.5-137 99.5-99 137-36.5q113 0 193 80t80 193-80 193-193 80z" />
<glyph unicode="&#xe60a;" glyph-name="plus" d="M987 485h-438v438q0 16-11 26.5t-26 10.5q-10 0-18.5-5t-13.5-13.5-5-18.5v-438h-438q-8 0-14.5-3t-11.5-8-8-12-3-14q0-15 10.5-26t26.5-11h438v-438q0-16 11-26.5t26-10.5 26 10.5 11 26.5v438h438q16 0 26.5 11t10.5 26-10.5 26-26.5 11z" />
<glyph unicode="&#xe60b;" glyph-name="chartactive" d="M883 164h-195l53-101q6-12-4.5-18.5t-16.5 5.5l-60 114h-289l-63-113q-6-12-17-5-5 3-6 8.5t1 9.5l55 100h-200q-3 0-5.5 1.5t-4 3-2.5 4-1 5.5q0 5 4 9t9 4h742q5 0 9-4t4-9.5-4-9.5-9-4zM845 718h-666q-10 0-17.5-8t-7.5-19v-446q0-11 7.5-19t17.5-8h666q7 0 13 4t9 10 3 13v446q0 11-7.5 19t-17.5 8zM768 380q0-5-3.5-9t-9-4-9.5 4-4 9v184l-189-200q-9-9-18 0l-126 134-127-134q-4-4-9-4t-9 4q-9 10 0 20l136 143q3 4 8.5 4t9.5-4l126-134 180 190h-174q-5 0-8.5 4t-3.5 9.5 3.5 9.5 8.5 4h205q3 0 5.5-1t4-3 2.5-4.5 1-4.5v-217zM602 772h-26v14q0 18-8.5 33.5t-23.5 24.5-32 9-32-9-23.5-24.5-8.5-33.5v-14h-26q-5 0-8.5-4t-3.5-9q0-3 1-5.5t2.5-4.5 4-3 4.5-1h180q5 0 8.5 4t3.5 10q-1 12-12 13zM550 772h-76v14q0 11 5 20t14 14.5 19 5.5q16 0 27-12t11-28v-14z" />
<glyph unicode="&#xe60c;" glyph-name="chart" d="M883 164h-195l53-101q6-11-5-18-4-3-9-1.5t-7 6.5l-60 114h-289l-63-113q-6-12-17-5t-5 18l55 100h-200q-3 0-5.5 1.5t-4 3-2.5 4-1 5.5q0 4 1.5 7t4.5 4.5 7 1.5h742q3 0 5.5-1t4-2.5 2.5-4 1-5.5q0-6-4-10t-9-4zM845 218h-666q-10 0-17.5 8t-7.5 19v446q0 11 7.5 19t17.5 8h666q10 0 17.5-8t7.5-19v-446q0-11-7.5-19t-17.5-8zM845 678q0 5-4 9t-9 4h-640q-5 0-9-4t-4-9v-419q0-6 4-10t9-4h640q13 0 13 14v419zM755.5 367q-5.5 0-9.5 4t-4 10v183l-189-200q-3-4-8.5-4t-9.5 4l-126 134-127-134q-4-4-9-4t-9 4q-9 10 0 20l136 143q9 9 18 0l126-134 180 190h-174q-5 0-8.5 4t-3.5 9.5 3.5 9.5 8.5 4h205q5 0 9-4t4-9v-216q0-6-3.5-10t-9-4zM602 745h-180q-5 0-8.5 4t-3.5 10q0 2 1 4.5t2.5 4.5 4 3 4.5 1h26v14q0 18 8.5 33.5t23.5 24.5 32 9 32-9 23.5-24.5 8.5-33.5v-14h26q3 0 6-1.5t4.5-5 1.5-6.5q0-6-3.5-10t-8.5-4zM550 786q0 11-5 20t-14 14.5-19 5.5q-16 0-27-12t-11-28v-14h76v14z" />
<glyph unicode="&#xe60d;" glyph-name="compareactive" horiz-adv-x="1025" d="M1005 604q-16-12-53.5-42t-67.5-53l-30-24q45-137 57-174 9-28-6-40t-34 2q-158 112-158 111 4 11 11 26 161-112 161-113-56 176-59 184-5 14 5 21 3 2 43 33.5t79 62.5l39 31h-197q-5 0-8.5 1t-6 4-4.5 7q0 1-2.5 7.5t-6 17-8.5 23.5-10 27.5-10.5 28.5-10 27-8 22.5-5.5 15.5l-2 6q-61-168-64-175-5-12-19-12h-105q-6 12-12 27l112 1q44 121 57 160 12 32 30.5 32t29.5-32q15-42 58-161h185q31 0 38-16t-18-36zM747 554q40 0 49-20.5t-23-47.5l-193-154q1-4 3.5-10.5t8.5-26 12-38 13.5-42.5 14-43.5 12.5-38 9-28.5q11-36-8-51.5t-44 3.5q-32 23-202 143l-202-143q-18-13-33-9t-20 19 0 36q6 17 24.5 74.5t33.5 106.5l16 48-194 155q-17 14-22 29.5t5.5 27 35.5 11.5q54-1 244 0 55 158 73 209 14 42 38 41.5t38-41.5l74-210q159 1 237 0z" />
<glyph unicode="&#xe60e;" glyph-name="compare" horiz-adv-x="1025" d="M1005 604q-16-12-53.5-42t-67.5-53l-30-24q45-137 57-174 9-28-6-40t-34 2q-158 112-158 111 4 11 11 26 161-112 161-113-56 176-59 184-5 14 5 21 3 2 43 33.5t79 62.5l39 31h-197q-5 0-8.5 1t-6 4-4.5 7q0 1-2.5 7.5t-6 17-8.5 23.5-10 27.5-10.5 28.5-10 27-8 22.5-5.5 15.5l-2 6q-61-168-64-175-5-12-19-12h-105q-6 12-12 27l112 1q44 121 57 160 12 32 30.5 32t29.5-32q15-42 58-161h185q31 0 38-16t-18-36zM747 554q40 0 49-20.5t-23-47.5l-193-154q1-4 3.5-10.5t8.5-26 12-38 13.5-42.5 14-43.5 12.5-38 9-28.5q11-36-8-51.5t-44 3.5q-32 23-202 143l-202-143q-18-13-33-9t-20 19 0 36q6 17 24.5 74.5t33.5 106.5l16 48-194 155q-17 14-22 29.5t5.5 27 35.5 11.5q54-1 244 0 55 158 73 209 14 42 38 41.5t38-41.5l74-210q159 1 237 0zM504 519q-17 1-24 16-1 3-21.5 60t-40.5 112l-19 55-82-227q-2-7-9-11.5t-15-4.5h-252l202-162q6-4 9-9t3-10.5-2-11.5q-1-3-9-29t-19-60-21.5-68-17.5-57l-8-24q197 140 207 147 14 9 28-1 8-6 207-146v0l-76 239q-7 17 7 27 2 2 24 19.5t51.5 41.5 59 47.5 50.5 39.5l20 17h-252z" />
<glyph unicode="&#xe60f;" glyph-name="projectactive" d="M866 73h-708q-13 0-25 5t-20.5 13.5-13.5 20-5 24.5v624q0 17 7.5 32t20.5 23 28 8h234l112-177h370q27 0 45.5-19t18.5-45v-446q0-13-5-24.5t-13.5-20-20.5-13.5-25-5zM280 464q-5 0-10-2t-8-5-5-8-2-10q0-10 7-17.5t18-7.5 18 7.5 7 18-7 17.5-18 7zM280 301q-4 0-8-1.5t-7-3.5-5.5-5.5-3.5-7-1-7.5q0-11 7-18.5t18-7.5 18 7.5 7 18-7 18-18 7.5zM769 456h-369q-5 0-9-2t-6.5-6-2.5-9q0-3 1-5.5t2.5-4.5 4-3.5 5-2.5 5.5-1h369q5 0 9 2.5t6.5 6 2.5 8.5q0 7-5 12t-13 5zM769 293h-369q-7 0-12.5-5t-5.5-12.5 5.5-12.5 12.5-5h369q5 0 9 2.5t6.5 6.5 2.5 8.5-2.5 8.5-6.5 6.5-9 2.5z" />
<glyph unicode="&#xe610;" glyph-name="project" d="M769 456h-369q-5 0-9-2t-6.5-6-2.5-9q0-3 1-5.5t2.5-4.5 4-3.5 5-2.5 5.5-1h369q5 0 9 2.5t6.5 6 2.5 8.5q0 7-5 12t-13 5zM255 439q0-10 7-17.5t18-7.5 18 7.5 7 17.5q0 11-7 18t-18 7-18-7-7-18zM769 293h-369q-7 0-12.5-5t-5.5-12.5 5.5-12.5 12.5-5h369q5 0 9 2.5t6.5 6.5 2.5 8.5-2.5 8.5-6.5 6.5-9 2.5zM255 276q0-11 7-18.5t18-7.5 18 7.5 7 18.5q0 10-7 17.5t-18 7.5q-4 0-8-1.5t-7-3.5-5.5-5.5-3.5-7-1-7.5zM866 646h-370l-112 177h-234q-23 0-39.5-18.5t-16.5-44.5v-624q0-26 18.5-44.5t45.5-18.5h708q18 0 32.5 8t23 23 8.5 32v446q0 26-18.5 45t-45.5 19zM150 789h215l90-143h-297q-15 0-29-8v122q0 8 3 14.5t7.5 10.5 10.5 4zM895 136q0-4-1-8t-3-7-4.5-5.5-5.5-4.5-7-3-8-1h-708q-6 0-11.5 2.5t-9.5 6-6 9-2 11.5v446q0 12 8.5 20.5t20.5 8.5h708q6 0 11.5-2t9.5-6 6-9.5 2-11.5v-446z" />
<glyph unicode="&#xe612;" glyph-name="close" d="M853 132l-25-25-316 316-316-316-25 25 316 316-316 316 25 25 316-316 316 316 25-25-316-316z" />
<glyph unicode="&#xe613;" glyph-name="abnormalactive" d="M512 38q-159 0-276 108-114 104-131 256-3 24-3 46 0 111 55 205.5t149.5 149.5 205.5 55 205.5-55 149.5-149.5 55-205.5q0-159-108-276-104-114-256-131-24-3-46-3zM486 685l5-294h43l6 294h-54zM537 325q-10 10-24 10t-24-9.5-10-23.5q0-5 1-9t3.5-7.5 5.5-7.5q10-10 26-10 13 0 22.5 10t9.5 24q0 13-10 23z" />
<glyph unicode="&#xe614;" glyph-name="abnormal" d="M512 38q111 0 205.5 55t149.5 149.5 55 205.5-55 205.5-149.5 149.5-205.5 55q-159 0-276-108-114-104-131-256-3-24-3-46 0-159 108-276 104-114 256-131 24-3 46-3zM512 824q102 0 188.5-50.5t137-137 50.5-188.5q0-149-103-258-101-106-246-117-14-1-27-1-149 0-258 103-106 101-117 246-1 14-1 27 0 102 50.5 188.5t137 137 188.5 50.5zM534 391l6 294h-54l5-294h43zM515 268q13 0 22.5 10t9.5 24q0 13-10 23t-24 10-24-9.5-10-23.5q0-7 2.5-13t7.5-11q10-10 26-10z" />
<glyph unicode="&#xe615;" glyph-name="right" d="M845 626l-404-406q-2-3-5-6-12-12-29-12t-28 12l-201 200q-12 12-12 29t12 29 28.5 12 28.5-12l172-172 380 383q4 4 8 6.5t8 3.5 8.5 1.5 9 0 8.5-1.5 8-3.5 8-6.5q11-12 11-28.5t-11-28.5z" />
</font>
</defs>
</svg>
